<svg width="60" height="60" viewBox="0 0 60 60" fill="none" xmlns="http://www.w3.org/2000/svg">
<path d="M4 59V59.75C4.41421 59.75 4.75 59.4142 4.75 59H4ZM1 59H0.25C0.25 59.4142 0.585786 59.75 1 59.75L1 59ZM1 1V0.25C0.585786 0.25 0.25 0.585786 0.25 1L1 1ZM59 1H59.75C59.75 0.585786 59.4142 0.25 59 0.25V1ZM59 59V59.75C59.4142 59.75 59.75 59.4142 59.75 59H59ZM56 59H55.25C55.25 59.4142 55.5858 59.75 56 59.75V59ZM56 57H56.75C56.75 56.5858 56.4142 56.25 56 56.25V57ZM4 57V56.25C3.58579 56.25 3.25 56.5858 3.25 57H4ZM14.75 21C14.75 20.5858 14.4142 20.25 14 20.25C13.5858 20.25 13.25 20.5858 13.25 21H14.75ZM13.25 25C13.25 25.4142 13.5858 25.75 14 25.75C14.4142 25.75 14.75 25.4142 14.75 25H13.25ZM17.75 21C17.75 20.5858 17.4142 20.25 17 20.25C16.5858 20.25 16.25 20.5858 16.25 21H17.75ZM16.25 25C16.25 25.4142 16.5858 25.75 17 25.75C17.4142 25.75 17.75 25.4142 17.75 25H16.25ZM20.75 21C20.75 20.5858 20.4142 20.25 20 20.25C19.5858 20.25 19.25 20.5858 19.25 21H20.75ZM19.25 25C19.25 25.4142 19.5858 25.75 20 25.75C20.4142 25.75 20.75 25.4142 20.75 25H19.25ZM59 43.75C59.4142 43.75 59.75 43.4142 59.75 43C59.75 42.5858 59.4142 42.25 59 42.25V43.75ZM29 42.25C28.5858 42.25 28.25 42.5858 28.25 43C28.25 43.4142 28.5858 43.75 29 43.75V42.25ZM42 8.25C41.5858 8.25 41.25 8.58579 41.25 9C41.25 9.41421 41.5858 9.75 42 9.75V8.25ZM46 9.75C46.4142 9.75 46.75 9.41421 46.75 9C46.75 8.58579 46.4142 8.25 46 8.25V9.75ZM42 22.25C41.5858 22.25 41.25 22.5858 41.25 23C41.25 23.4142 41.5858 23.75 42 23.75V22.25ZM46 23.75C46.4142 23.75 46.75 23.4142 46.75 23C46.75 22.5858 46.4142 22.25 46 22.25V23.75ZM42 36.25C41.5858 36.25 41.25 36.5858 41.25 37C41.25 37.4142 41.5858 37.75 42 37.75V36.25ZM46 37.75C46.4142 37.75 46.75 37.4142 46.75 37C46.75 36.5858 46.4142 36.25 46 36.25V37.75ZM6 29L6.38587 28.3569C6.12707 28.2016 5.8004 28.2166 5.55689 28.3949C5.31339 28.5732 5.20049 28.8801 5.2704 29.1737L6 29ZM11 50L10.2704 50.1737C10.3508 50.5116 10.6527 50.75 11 50.75C11.3473 50.75 11.6492 50.5116 11.7296 50.1737L11 50ZM16 29L16.7296 29.1737C16.7995 28.8801 16.6866 28.5732 16.4431 28.3949C16.1996 28.2166 15.8729 28.2016 15.6141 28.3569L16 29ZM5.25 20C5.25 20.4142 5.58579 20.75 6 20.75C6.41421 20.75 6.75 20.4142 6.75 20H5.25ZM4 58.25H1V59.75H4V58.25ZM59 58.25H56V59.75H59V58.25ZM56.75 59V57H55.25V59H56.75ZM3.25 57V59H4.75V57H3.25ZM56 56.25H29V57.75H56V56.25ZM29 56.25H4V57.75H29V56.25ZM1 1.75H29V0.25H1V1.75ZM29 1.75H59V0.25H29V1.75ZM29.75 15V1H28.25V15H29.75ZM1.75 15V1H0.25V15H1.75ZM29 14.25H1V15.75H29V14.25ZM1.75 59V23H0.25V59H1.75ZM1.75 23V15H0.25V23H1.75ZM29.75 23V15H28.25V23H29.75ZM1 23.75H29V22.25H1V23.75ZM10.25 21V32H11.75V21H10.25ZM13.25 21V25H14.75V21H13.25ZM16.25 21V25H17.75V21H16.25ZM19.25 21V25H20.75V21H19.25ZM58.25 1V15H59.75V1H58.25ZM29 15.75H59V14.25H29V15.75ZM58.25 15V29H59.75V15H58.25ZM58.25 29V59H59.75V29H58.25ZM29.75 57V29H28.25V57H29.75ZM29.75 29V23H28.25V29H29.75ZM59 28.25H29V29.75H59V28.25ZM59 42.25H29V43.75H59V42.25ZM42 9.75H46V8.25H42V9.75ZM42 23.75H46V22.25H42V23.75ZM42 37.75H46V36.25H42V37.75ZM11.3859 31.3569L6.38587 28.3569L5.61413 29.6431L10.6141 32.6431L11.3859 31.3569ZM5.2704 29.1737L10.2704 50.1737L11.7296 49.8263L6.7296 28.8263L5.2704 29.1737ZM11.7296 50.1737L16.7296 29.1737L15.2704 28.8263L10.2704 49.8263L11.7296 50.1737ZM15.6141 28.3569L10.6141 31.3569L11.3859 32.6431L16.3859 29.6431L15.6141 28.3569ZM11.75 21C11.75 20.38 11.5702 19.4667 11.0087 18.6868C10.4196 17.8686 9.44444 17.25 8 17.25V18.75C8.95556 18.75 9.4804 19.1314 9.79135 19.5632C10.1298 20.0333 10.25 20.62 10.25 21H11.75ZM8 17.25C7.06964 17.25 6.34132 17.5689 5.86133 18.1449C5.4014 18.6968 5.25 19.3886 5.25 20H6.75C6.75 19.6114 6.8486 19.3032 7.01367 19.1051C7.15868 18.9311 7.43036 18.75 8 18.75V17.25ZM10.25 32V50H11.75V32H10.25Z" fill="#394C59"/>
</svg>