<svg width="56" height="60" viewBox="0 0 56 60" fill="none" xmlns="http://www.w3.org/2000/svg">
<path d="M8 38.25C7.58579 38.25 7.25 38.5858 7.25 39C7.25 39.4142 7.58579 39.75 8 39.75V38.25ZM12 39.75C12.4142 39.75 12.75 39.4142 12.75 39C12.75 38.5858 12.4142 38.25 12 38.25V39.75ZM8 48.25C7.58579 48.25 7.25 48.5858 7.25 49C7.25 49.4142 7.58579 49.75 8 49.75V48.25ZM12 49.75C12.4142 49.75 12.75 49.4142 12.75 49C12.75 48.5858 12.4142 48.25 12 48.25V49.75ZM26 38.25C25.5858 38.25 25.25 38.5858 25.25 39C25.25 39.4142 25.5858 39.75 26 39.75V38.25ZM30 39.75C30.4142 39.75 30.75 39.4142 30.75 39C30.75 38.5858 30.4142 38.25 30 38.25V39.75ZM26 48.25C25.5858 48.25 25.25 48.5858 25.25 49C25.25 49.4142 25.5858 49.75 26 49.75V48.25ZM30 49.75C30.4142 49.75 30.75 49.4142 30.75 49C30.75 48.5858 30.4142 48.25 30 48.25V49.75ZM44 48.25C43.5858 48.25 43.25 48.5858 43.25 49C43.25 49.4142 43.5858 49.75 44 49.75V48.25ZM48 49.75C48.4142 49.75 48.75 49.4142 48.75 49C48.75 48.5858 48.4142 48.25 48 48.25V49.75ZM44 38.25C43.5858 38.25 43.25 38.5858 43.25 39C43.25 39.4142 43.5858 39.75 44 39.75V38.25ZM48 39.75C48.4142 39.75 48.75 39.4142 48.75 39C48.75 38.5858 48.4142 38.25 48 38.25V39.75ZM4.75 54C4.75 53.5858 4.41421 53.25 4 53.25C3.58579 53.25 3.25 53.5858 3.25 54H4.75ZM7.75 54C7.75 53.5858 7.41421 53.25 7 53.25C6.58579 53.25 6.25 53.5858 6.25 54H7.75ZM49.75 54C49.75 53.5858 49.4142 53.25 49 53.25C48.5858 53.25 48.25 53.5858 48.25 54H49.75ZM52.75 54C52.75 53.5858 52.4142 53.25 52 53.25C51.5858 53.25 51.25 53.5858 51.25 54H52.75ZM5.75 2C5.75 1.98656 5.75273 1.95173 5.76489 1.90917C5.77676 1.86765 5.79289 1.83512 5.80865 1.81323C5.82245 1.79406 5.83519 1.7836 5.8501 1.77591C5.8644 1.76853 5.90707 1.75 6 1.75V0.25C5.35556 0.25 4.8804 0.535316 4.59135 0.936771C4.32984 1.29998 4.25 1.71332 4.25 2H5.75ZM6 1.75H50V0.25H6V1.75ZM50 1.75C50.0134 1.75 50.0483 1.75273 50.0908 1.76489C50.1324 1.77676 50.1649 1.79289 50.1868 1.80865C50.2059 1.82245 50.2164 1.83519 50.2241 1.8501C50.2315 1.8644 50.25 1.90707 50.25 2H51.75C51.75 1.35556 51.4647 0.880397 51.0632 0.591349C50.7 0.329836 50.2867 0.25 50 0.25V1.75ZM50.25 25C50.25 25.0134 50.2473 25.0483 50.2351 25.0908C50.2232 25.1324 50.2071 25.1649 50.1913 25.1868C50.1775 25.2059 50.1648 25.2164 50.1499 25.2241C50.1356 25.2315 50.0929 25.25 50 25.25V26.75C50.6444 26.75 51.1196 26.4647 51.4086 26.0632C51.6702 25.7 51.75 25.2867 51.75 25H50.25ZM6 25.25C5.98656 25.25 5.95173 25.2473 5.90917 25.2351C5.86765 25.2232 5.83512 25.2071 5.81323 25.1913C5.79406 25.1775 5.7836 25.1648 5.77591 25.1499C5.76853 25.1356 5.75 25.0929 5.75 25H4.25C4.25 25.6444 4.53532 26.1196 4.93677 26.4086C5.29998 26.6702 5.71332 26.75 6 26.75V25.25ZM5.75 4V2H4.25V4H5.75ZM50.25 2V4H51.75V2H50.25ZM5 4.75H51V3.25H5V4.75ZM50.25 4V23H51.75V4H50.25ZM50.25 23V25H51.75V23H50.25ZM5.75 25V23H4.25V25H5.75ZM5.75 23V4H4.25V23H5.75ZM51 22.25H5V23.75H51V22.25ZM50 25.25H28V26.75H50V25.25ZM28 25.25H6V26.75H28V25.25ZM27.25 26V30H28.75V26H27.25ZM23.75 32C23.75 31.7867 23.8202 31.45 24.0086 31.1882C24.1696 30.9647 24.4444 30.75 25 30.75V29.25C23.9556 29.25 23.2304 29.702 22.7913 30.3118C22.3798 30.8833 22.25 31.5466 22.25 32H23.75ZM25 30.75H28V29.25H25V30.75ZM28 30.75H31V29.25H28V30.75ZM31 30.75C31.2133 30.75 31.55 30.8202 31.8118 31.0086C32.0353 31.1696 32.25 31.4444 32.25 32H33.75C33.75 30.9556 33.298 30.2304 32.6882 29.7913C32.1167 29.3798 31.4534 29.25 31 29.25V30.75ZM32.25 32C32.25 32.5556 32.0353 32.8304 31.8118 32.9913C31.55 33.1798 31.2133 33.25 31 33.25V34.75C31.4534 34.75 32.1167 34.6202 32.6882 34.2086C33.298 33.7696 33.75 33.0444 33.75 32H32.25ZM31 33.25H25V34.75H31V33.25ZM25 33.25C24.7867 33.25 24.45 33.1798 24.1882 32.9913C23.9647 32.8304 23.75 32.5556 23.75 32H22.25C22.25 33.0444 22.702 33.7696 23.3118 34.2086C23.8833 34.6202 24.5466 34.75 25 34.75V33.25ZM1.75 35C1.75 34.9866 1.75273 34.9517 1.76489 34.9092C1.77676 34.8676 1.79289 34.8351 1.80865 34.8132C1.82245 34.7941 1.83519 34.7836 1.8501 34.7759C1.8644 34.7685 1.90707 34.75 2 34.75V33.25C1.35556 33.25 0.880397 33.5353 0.591349 33.9368C0.329836 34.3 0.25 34.7133 0.25 35H1.75ZM54 34.75C54.0134 34.75 54.0483 34.7527 54.0908 34.7649C54.1324 34.7768 54.1649 34.7929 54.1868 34.8087C54.2059 34.8225 54.2164 34.8352 54.2241 34.8501C54.2315 34.8644 54.25 34.9071 54.25 35H55.75C55.75 34.3556 55.4647 33.8804 55.0632 33.5914C54.7 33.3298 54.2867 33.25 54 33.25V34.75ZM54.25 53C54.25 53.0134 54.2473 53.0483 54.2351 53.0908C54.2232 53.1324 54.2071 53.1649 54.1913 53.1868C54.1775 53.2059 54.1648 53.2164 54.1499 53.2241C54.1356 53.2315 54.0929 53.25 54 53.25V54.75C54.6444 54.75 55.1196 54.4647 55.4086 54.0632C55.6702 53.7 55.75 53.2867 55.75 53H54.25ZM2 53.25C1.98656 53.25 1.95173 53.2473 1.90917 53.2351C1.86765 53.2232 1.83512 53.2071 1.81323 53.1913C1.79406 53.1775 1.7836 53.1648 1.77591 53.1499C1.76853 53.1356 1.75 53.0929 1.75 53H0.25C0.25 53.6444 0.535316 54.1196 0.936771 54.4086C1.29998 54.6702 1.71332 54.75 2 54.75V53.25ZM1.75 53V44H0.25V53H1.75ZM1.75 44V35H0.25V44H1.75ZM54.25 35V44H55.75V35H54.25ZM54.25 44V53H55.75V44H54.25ZM1 44.75H19V43.25H1V44.75ZM19 44.75H37V43.25H19V44.75ZM37 44.75H55V43.25H37V44.75ZM2 34.75H19V33.25H2V34.75ZM19 53.25H2V54.75H19V53.25ZM18.25 34V44H19.75V34H18.25ZM18.25 44V54H19.75V44H18.25ZM19 34.75H25V33.25H19V34.75ZM31 34.75H37V33.25H31V34.75ZM37 34.75H54V33.25H37V34.75ZM54 53.25H37V54.75H54V53.25ZM37 53.25H19V54.75H37V53.25ZM36.25 34V44H37.75V34H36.25ZM36.25 44V54H37.75V44H36.25ZM8 39.75H12V38.25H8V39.75ZM8 49.75H12V48.25H8V49.75ZM26 39.75H30V38.25H26V39.75ZM26 49.75H30V48.25H26V49.75ZM44 49.75H48V48.25H44V49.75ZM44 39.75H48V38.25H44V39.75ZM3.25 54V57.5H4.75V54H3.25ZM7.75 57.5V54H6.25V57.5H7.75ZM48.25 54V57.5H49.75V54H48.25ZM52.75 57.5V54H51.25V57.5H52.75ZM48.25 57.5C48.25 58.7426 49.2574 59.75 50.5 59.75V58.25C50.0858 58.25 49.75 57.9142 49.75 57.5H48.25ZM5.5 59.75C6.74264 59.75 7.75 58.7426 7.75 57.5H6.25C6.25 57.9142 5.91421 58.25 5.5 58.25V59.75ZM50.5 59.75C51.7426 59.75 52.75 58.7426 52.75 57.5H51.25C51.25 57.9142 50.9142 58.25 50.5 58.25V59.75ZM3.25 57.5C3.25 58.7426 4.25736 59.75 5.5 59.75V58.25C5.08579 58.25 4.75 57.9142 4.75 57.5H3.25Z" fill="#394C59"/>
</svg>