<svg xmlns="http://www.w3.org/2000/svg" viewBox="0 0 24 24">
<path d="M1.1,1.1C0.8,1.5,0.5,1.8,0.5,1.8c0,0,2.3,2.3,5,5c5.4,5.4,5.1,5.1,5.1,5.2c0,0-2.3,2.3-5,5c-2.7,2.7-5,5-5,5c-0.1,0.1-0.1,0.1,0.6,0.7c0.4,0.4,0.7,0.6,0.7,0.6c0,0,2.3-2.3,5-5c5.4-5.4,5.1-5.1,5.2-5.1c0,0,2.3,2.3,5.1,5.1c2.8,2.8,5,5,5,5c0,0,1.3-1.3,1.3-1.3c0,0-2.3-2.3-5-5c-2.8-2.8-5-5-5.1-5.1c-0.1-0.1-0.4,0.2,5.1-5.2c2.8-2.8,5-5,5-5c0,0-0.3-0.3-0.6-0.7l-0.6-0.6l-0.1,0.1c0,0-2.3,2.3-5.1,5.1l-5,5l-0.1-0.1c-0.1,0-2.4-2.3-5.1-5.1c-2.8-2.8-5-5-5-5C1.8,0.5,1.5,0.8,1.1,1.1"/>
</svg>
