<svg xmlns="http://www.w3.org/2000/svg" viewBox="0 0 24 24">
	<path d="M21.3,20l-3.6-3.5c1.4-1.7,2-3.9,1.9-6.1c-0.2-2.2-1.2-4.2-2.8-5.7c-1.6-1.5-3.8-2.3-6-2.2c-2.2,0.1-4.3,1-5.9,2.5c-1.6,1.6-2.5,3.7-2.5,5.9c-0.1,2.2,0.7,4.3,2.2,6c1.5,1.6,3.5,2.7,5.7,2.8c2.2,0.2,4.4-0.5,6.1-1.9l3.5,3.5c0.1,0.1,0.2,0.2,0.3,0.2c0.1,0,0.2,0.1,0.4,0.1c0.1,0,0.3,0,0.4-0.1c0.1,0,0.2-0.1,0.3-0.2c0.2-0.2,0.3-0.4,0.3-0.7C21.6,20.4,21.5,20.1,21.3,20z M11.1,17.8c-1.3,0-2.6-0.4-3.7-1.1c-1.1-0.7-2-1.8-2.5-3s-0.6-2.6-0.4-3.9c0.3-1.3,0.9-2.5,1.8-3.4c0.9-0.9,2.1-1.6,3.4-1.8c1.3-0.3,2.7-0.1,3.9,0.4s2.3,1.4,3,2.5c0.7,1.1,1.1,2.4,1.1,3.7c0,1.8-0.7,3.5-2,4.7C14.5,17.1,12.8,17.8,11.1,17.8z"/>
</svg>
