<?xml version="1.0" standalone="no"?>
<!DOCTYPE svg PUBLIC "-//W3C//DTD SVG 20010904//EN"
 "http://www.w3.org/TR/2001/REC-SVG-20010904/DTD/svg10.dtd">
<svg version="1.0" xmlns="http://www.w3.org/2000/svg"
 width="1180.000000pt" height="1180.000000pt" viewBox="0 0 1180.000000 1180.000000"
 preserveAspectRatio="xMidYMid meet">
<metadata>
Created by potrace 1.14, written by Peter Selinger 2001-2017
</metadata>
<g transform="translate(0.000000,1180.000000) scale(0.100000,-0.100000)"
fill="#000000" stroke="none">
<path d="M1920 11632 c-6 -2 -10 -34 -10 -71 l0 -68 68 -6 c139 -11 369 -86
495 -160 104 -61 200 -159 237 -241 29 -63 54 -162 64 -251 3 -22 5 -700 6
-1507 l0 -1467 580 0 c444 0 580 3 581 12 0 7 1 757 2 1667 l2 1655 1055 1
c580 1 1089 -2 1130 -7 191 -21 346 -66 515 -150 348 -172 648 -491 850 -904
103 -210 172 -427 200 -635 4 -25 8 -58 11 -75 3 -16 6 -113 8 -215 4 -165 -1
-259 -18 -355 -3 -16 -8 -49 -11 -72 -9 -64 -60 -240 -95 -327 -66 -167 -165
-338 -277 -475 -37 -46 -74 -92 -81 -102 -13 -17 9 -18 587 -17 l601 0 41 52
c183 229 322 534 380 830 11 55 15 81 27 166 9 70 9 468 -1 538 -30 213 -30
214 -62 342 -61 241 -138 422 -268 630 -92 148 -178 253 -326 400 -353 351
-796 596 -1301 719 -69 17 -138 33 -155 35 -16 3 -61 10 -100 16 -116 19 -177
26 -320 36 -89 7 -4396 12 -4415 6z"/>
<path d="M1730 7101 c-177 -45 -308 -177 -361 -366 -15 -54 -20 -282 -7 -346
19 -95 73 -194 144 -265 94 -94 219 -144 364 -145 119 0 180 12 277 58 54 25
173 129 173 151 0 6 3 12 8 12 19 0 77 158 88 245 44 334 -117 603 -397 661
-87 18 -205 16 -289 -5z m293 -179 c144 -64 216 -253 181 -474 -29 -186 -130
-285 -299 -295 -66 -4 -90 -1 -137 16 -144 55 -217 204 -205 421 10 181 80
295 211 342 68 25 182 20 249 -10z"/>
<path d="M3280 7106 c-166 -38 -305 -168 -365 -341 -14 -39 -31 -171 -29 -221
12 -362 214 -569 552 -565 206 2 371 101 456 272 50 101 65 180 61 319 -4 152
-19 213 -80 315 -60 103 -195 198 -317 223 -67 13 -214 13 -278 -2z m280 -183
c121 -55 190 -189 190 -373 0 -138 -35 -242 -105 -314 -51 -52 -115 -79 -205
-84 -168 -9 -290 88 -331 265 -11 47 -14 198 -5 238 14 63 21 85 44 130 40 80
90 123 175 151 59 19 180 13 237 -13z"/>
<path d="M11154 7105 c-237 -52 -393 -259 -397 -528 -3 -206 44 -340 158 -453
96 -97 220 -145 372 -145 96 0 142 7 213 33 117 44 211 129 271 246 23 46 24
53 24 292 l0 245 -34 63 c-66 121 -177 208 -310 242 -81 21 -215 24 -297 5z
m263 -177 c92 -34 166 -130 193 -252 14 -66 11 -207 -7 -276 -50 -196 -220
-291 -413 -234 -139 41 -220 176 -222 368 -1 138 20 215 79 298 57 79 141 118
253 116 37 0 87 -9 117 -20z"/>
<path d="M40 7020 c-1 -105 -1 -916 0 -977 l0 -48 83 2 c45 0 91 1 102 2 19 1
20 7 19 211 -1 115 1 211 5 211 24 4 123 4 129 -1 14 -9 92 -119 92 -129 0 -5
4 -11 8 -13 4 -1 52 -66 106 -143 l98 -140 119 0 c65 0 119 2 119 4 0 1 -72
102 -160 223 -88 121 -160 223 -160 226 0 4 21 16 48 26 54 22 96 50 129 86
108 115 100 328 -15 432 -95 86 -155 99 -469 105 l-253 4 0 -81z m483 -102
c63 -16 103 -50 115 -100 22 -86 -20 -174 -93 -198 -57 -19 -78 -21 -192 -24
l-111 -3 0 169 1 169 118 -2 c66 -1 138 -6 162 -11z"/>
<path d="M4475 6552 c1 -301 3 -549 4 -552 1 -4 169 -5 192 -1 3 1 5 191 4
424 l-2 422 22 -75 c13 -41 67 -194 120 -340 54 -146 110 -301 126 -344 16
-44 31 -81 34 -84 5 -5 125 -6 129 -1 5 7 228 621 266 731 l36 107 -4 -419
c-3 -344 -1 -420 10 -421 57 -4 166 -3 178 2 13 6 15 77 14 551 l0 543 -141 3
-141 3 -25 -68 c-68 -179 -198 -548 -222 -628 -16 -49 -31 -94 -35 -98 -4 -4
-17 27 -29 70 -24 81 -135 403 -152 438 -5 11 -13 34 -18 50 -6 17 -24 68 -41
115 -18 47 -34 93 -37 103 -5 16 -20 17 -147 16 l-142 0 1 -547z"/>
<path d="M6060 7015 l0 -85 178 0 178 0 -1 -457 c0 -252 0 -462 2 -468 3 -8
98 -11 186 -6 16 1 17 30 17 466 l0 465 175 0 c96 0 175 3 176 8 1 11 1 104 0
134 l-1 28 -455 0 -455 -1 0 -84z"/>
<path d="M7429 7083 c-1 -22 -1 -1040 0 -1068 1 -20 8 -20 369 -20 l367 1 3
85 3 85 -258 -1 c-142 0 -264 1 -270 3 -10 3 -13 43 -13 156 l0 151 218 0 217
0 0 85 0 85 -217 0 -218 0 0 142 0 143 255 0 255 0 1 33 c1 37 1 119 0 129 -1
4 -161 7 -356 8 -333 0 -355 -1 -356 -17z"/>
<path d="M8687 7093 c-8 -15 -4 -1084 4 -1089 5 -3 51 -6 101 -6 l93 -2 1 210
c1 115 2 212 3 215 0 3 31 5 67 4 l66 -1 42 -57 c22 -31 90 -126 150 -211 100
-143 112 -156 140 -157 182 -5 206 -4 201 9 -3 7 -75 109 -160 226 -85 118
-155 216 -155 219 0 3 13 8 30 12 49 11 143 78 175 126 39 58 54 119 50 201
-9 157 -108 257 -287 291 -82 15 -513 24 -521 10z m494 -179 c25 -7 58 -27 73
-43 24 -25 30 -40 32 -88 6 -138 -81 -190 -316 -189 l-85 1 -1 160 c0 88 2
164 4 168 6 13 243 5 293 -9z"/>
<path d="M10046 7092 c-8 -13 -6 -1092 2 -1093 37 -5 170 -4 182 2 13 6 15 77
14 551 l0 543 -96 3 c-53 1 -99 -1 -102 -6z"/>
<path d="M2818 5122 l-37 -3 0 -1277 c0 -702 -3 -1288 -5 -1302 -3 -14 -7 -41
-10 -60 -20 -130 -65 -229 -140 -308 -100 -106 -233 -178 -435 -237 -137 -39
-157 -43 -228 -44 l-53 -1 0 -73 0 -73 1448 2 c796 1 1450 2 1453 3 3 0 5 31
4 68 l-2 66 -94 3 c-191 6 -460 114 -579 233 -78 78 -144 212 -177 360 -15 69
-17 195 -18 1354 -1 702 -4 1280 -8 1283 -5 6 -1053 11 -1119 6z"/>
<path d="M7059 5122 l-47 -3 30 -77 c71 -185 184 -599 243 -892 1 -8 6 -37 9
-65 4 -27 9 -61 11 -75 3 -14 7 -41 9 -60 2 -19 19 -132 36 -250 17 -118 33
-231 36 -250 3 -19 7 -46 9 -60 3 -14 7 -41 10 -60 6 -43 33 -222 40 -270 3
-19 10 -57 15 -85 5 -27 12 -66 15 -85 3 -19 8 -51 11 -70 32 -195 114 -443
202 -610 193 -365 514 -598 917 -666 17 -3 41 -7 55 -9 138 -24 456 -23 610 1
194 31 429 211 595 459 72 107 162 303 179 391 2 10 10 41 16 67 8 28 9 52 4
56 -9 9 -276 93 -279 89 -1 -2 -16 -45 -34 -97 -113 -328 -268 -471 -527 -486
-221 -12 -356 100 -439 365 -24 79 -98 355 -109 411 -8 39 -94 414 -122 529
-14 58 -27 112 -29 120 -2 8 -11 44 -20 80 -9 36 -18 72 -20 80 -2 8 -11 44
-20 80 -9 36 -18 72 -20 80 -14 70 -168 614 -228 805 -71 224 -181 532 -196
548 -8 8 -860 16 -962 9z"/>
<path d="M4680 1050 c-14 -5 -56 -16 -94 -26 -192 -47 -269 -211 -262 -554 3
-164 22 -252 65 -315 42 -62 83 -85 153 -85 94 0 142 32 184 126 56 126 51
364 -11 469 -67 115 -211 118 -288 7 l-19 -27 7 35 c3 19 8 45 11 58 10 52 54
131 85 155 20 15 70 35 122 48 l87 21 0 49 c0 27 -3 49 -7 48 -5 -1 -19 -5
-33 -9z m-81 -409 c37 -39 53 -99 57 -206 5 -144 -24 -243 -78 -274 -31 -18
-79 -2 -103 35 -43 65 -63 274 -35 373 25 94 105 130 159 72z"/>
<path d="M616 758 c-47 -10 -115 -60 -144 -105 -78 -118 -85 -336 -16 -463 54
-100 175 -146 282 -109 28 10 30 13 25 47 -3 20 -7 38 -8 40 -2 2 -18 -1 -37
-6 -54 -15 -123 10 -152 56 -78 120 -58 366 35 433 30 21 88 28 125 16 18 -6
24 -2 33 24 6 18 11 38 11 44 0 24 -89 37 -154 23z"/>
<path d="M1025 764 c-5 -1 -26 -5 -45 -8 l-36 -6 1 -338 0 -337 130 0 c101 0
140 4 177 18 49 19 117 85 119 115 0 9 3 30 5 45 11 66 -46 147 -118 169 l-40
12 29 14 c92 47 127 137 84 220 -20 40 -73 75 -131 87 -35 8 -156 14 -175 9z
m163 -93 c55 -23 72 -84 41 -143 -15 -27 -86 -58 -136 -58 l-43 0 0 103 c0 57
2 106 5 109 10 10 101 2 133 -11z m25 -310 c108 -66 57 -207 -78 -212 -92 -4
-85 -14 -85 122 l0 122 64 -5 c41 -4 77 -13 99 -27z"/>
<path d="M1703 750 c-100 -46 -154 -169 -154 -347 1 -214 88 -332 244 -333 71
0 147 18 147 35 0 7 -3 26 -6 42 l-6 30 -43 -13 c-24 -7 -58 -11 -77 -9 -18 2
-39 4 -46 4 -18 1 -66 52 -81 86 -16 36 -20 55 -23 115 l-3 45 155 0 155 0 1
76 c2 83 -21 170 -58 220 -43 58 -137 80 -205 49z m117 -100 c26 -28 40 -72
45 -137 2 -25 6 -25 -127 -27 -81 -1 -84 1 -79 44 7 49 26 97 51 122 38 37 74
37 110 -2z"/>
<path d="M3910 763 c-47 -6 -115 -63 -145 -123 -34 -67 -46 -130 -46 -235 0
-161 57 -281 152 -319 49 -20 161 -20 208 0 27 11 31 18 27 41 -2 15 -5 33 -5
40 -1 8 -12 8 -43 -1 -38 -11 -63 -12 -120 -7 -54 4 -106 97 -111 197 l-2 49
145 1 c80 1 151 2 159 3 11 1 13 19 8 89 -11 189 -91 281 -227 265z m61 -93
c27 -15 50 -64 58 -126 6 -43 5 -53 -8 -56 -13 -3 -107 -3 -184 1 -12 1 -16 7
-13 24 24 131 81 192 147 157z"/>
<path d="M5129 760 c-123 -34 -190 -167 -184 -371 3 -133 38 -221 110 -281 33
-27 100 -41 173 -36 83 6 113 22 106 58 -10 46 -14 51 -26 43 -29 -18 -96 -24
-140 -12 -69 18 -111 90 -116 200 l-3 46 156 -1 c95 -1 156 3 159 9 8 23 -5
157 -20 202 -37 111 -123 168 -215 143z m57 -86 c32 -8 64 -74 67 -135 l2 -53
-90 -1 c-105 0 -115 2 -115 24 0 37 31 119 54 144 25 27 43 32 82 21z"/>
<path d="M7824 760 c-114 -26 -184 -147 -188 -330 -5 -181 53 -309 157 -347
42 -15 126 -16 183 -2 53 14 56 17 48 59 -7 30 -8 31 -43 24 -69 -14 -129 -10
-158 12 -46 34 -74 95 -76 166 l-2 63 135 1 c74 1 145 2 156 3 20 1 21 6 19
69 -4 112 -19 164 -61 219 -41 54 -106 78 -170 63z m51 -86 c30 -8 62 -62 73
-122 11 -64 10 -65 -92 -65 -112 1 -116 1 -116 21 0 40 31 121 56 146 27 26
42 30 79 20z"/>
<path d="M10975 763 c-45 -8 -105 -36 -105 -48 0 -8 4 -25 9 -39 l10 -25 50
17 c99 31 165 -12 166 -110 0 -48 -2 -52 -25 -54 -107 -8 -189 -53 -231 -127
-19 -34 -24 -56 -24 -117 0 -87 20 -130 76 -168 28 -20 43 -23 93 -20 53 4 62
8 92 41 29 31 34 34 35 17 3 -49 8 -53 59 -55 l39 -1 -2 270 c-3 255 -5 274
-26 322 -16 38 -32 57 -61 73 -37 21 -110 32 -155 24z m136 -355 c7 -132 -8
-206 -48 -238 -67 -52 -137 0 -134 102 1 78 29 119 98 144 58 20 83 18 84 -8z"/>
<path d="M2102 711 l3 -46 73 2 c48 1 72 -3 73 -10 1 -7 2 -140 3 -296 l1
-285 53 -1 c28 -1 52 1 53 4 0 3 1 136 2 296 l2 290 70 1 c39 1 73 2 77 3 4 1
6 20 5 44 l-3 42 -207 1 -208 0 3 -45z"/>
<path d="M2939 751 c-1 -3 -2 -22 -4 -41 -1 -19 -5 -82 -9 -140 -4 -58 -9
-121 -11 -140 -6 -68 -18 -256 -19 -304 l-1 -49 43 -2 c24 -1 45 2 47 5 3 4 7
77 11 161 3 85 7 177 9 204 2 28 4 86 5 130 l2 80 24 -95 c23 -90 86 -315 119
-427 16 -52 16 -53 55 -53 39 0 39 1 55 52 39 128 124 428 130 461 11 58 20
43 22 -36 0 -39 4 -146 9 -237 4 -91 8 -178 8 -195 1 -16 5 -35 8 -41 6 -8 51
-11 90 -5 4 1 5 25 3 54 -3 28 -7 88 -10 132 -3 44 -7 107 -9 140 -3 33 -8
110 -12 170 -9 128 -11 168 -13 176 -1 3 -29 5 -63 5 l-63 -1 -13 -40 c-18
-53 -85 -289 -113 -395 l-23 -85 -24 90 c-13 50 -39 140 -57 200 -19 61 -42
137 -52 170 l-18 59 -62 1 c-35 1 -63 -1 -64 -4z"/>
<path d="M5600 726 c0 -151 -9 -456 -13 -475 -12 -46 -62 -106 -79 -95 -10 6
-10 -13 -2 -55 7 -35 35 -41 82 -17 92 48 111 119 114 428 l1 155 74 2 73 2 0
-296 c0 -162 3 -295 8 -296 38 -6 85 -2 93 7 5 6 8 153 6 340 l-2 329 -177 1
-178 1 0 -31z"/>
<path d="M6196 752 c-3 -3 -6 -155 -6 -338 l0 -332 22 -6 c13 -3 68 -4 123 -3
87 2 108 6 158 30 189 93 171 344 -28 402 -30 9 -74 16 -98 15 -23 -1 -47 -1
-54 -1 -9 1 -13 35 -15 118 l-3 117 -47 2 c-26 1 -49 -1 -52 -4z m243 -336
c64 -33 89 -107 61 -180 -15 -41 -78 -76 -140 -78 l-55 -3 -3 141 -3 141 55
-3 c31 -2 69 -10 85 -18z"/>
<path d="M7068 511 c-4 -276 -13 -317 -70 -347 -26 -14 -29 -20 -24 -46 3 -17
6 -34 6 -39 0 -15 49 -10 82 7 45 23 65 51 84 112 22 74 24 96 26 293 l1 176
74 2 c70 2 73 1 74 -21 0 -13 1 -146 1 -295 0 -150 3 -273 6 -274 10 -2 64 -2
85 0 16 1 17 24 17 339 l0 338 -179 1 -179 0 -4 -246z"/>
<path d="M8259 751 c-1 -3 -2 -154 -3 -334 -1 -211 2 -331 9 -335 16 -10 95
-8 96 3 1 5 3 136 4 290 1 154 3 283 4 286 0 3 43 5 94 5 l92 -1 5 -295 5
-294 50 0 50 -1 0 340 0 340 -202 1 c-112 0 -204 -2 -204 -5z"/>
<path d="M8904 745 c-2 -5 -2 -158 -1 -340 l2 -330 50 1 50 0 3 147 c2 107 6
147 15 148 6 1 50 2 97 3 l85 1 5 -150 5 -150 40 0 c22 0 45 1 52 3 9 3 12 85
12 341 l0 336 -54 0 -55 1 0 -143 0 -143 -100 0 -99 0 -3 143 -3 142 -49 0
c-26 1 -50 -4 -52 -10z"/>
<path d="M9559 755 c-1 0 -3 -152 -4 -338 -1 -232 2 -337 9 -338 87 -8 97 -6
116 31 28 56 144 345 174 438 15 45 29 82 31 82 2 0 1 -19 -2 -42 -8 -77 -9
-508 -1 -509 10 -1 76 -1 86 0 11 2 9 670 -3 674 -5 2 -32 3 -58 3 l-49 -1
-101 -267 c-56 -147 -105 -268 -108 -268 -3 0 -5 12 -3 27 3 28 5 245 4 420
l0 91 -45 -1 c-25 -1 -46 -2 -46 -2z"/>
<path d="M10212 417 l3 -341 43 -1 c24 -1 46 3 50 9 4 6 8 67 8 136 1 69 2
132 3 140 1 13 16 15 89 14 48 -1 92 -2 98 -3 7 -1 10 -46 10 -138 -1 -76 0
-143 1 -148 2 -6 27 -10 56 -10 l52 1 0 337 c0 374 6 347 -70 343 l-40 -2 1
-142 2 -143 -102 3 -101 3 0 140 0 140 -53 1 -52 1 2 -340z"/>
</g>
</svg>
