<svg width="72" height="60" viewBox="0 0 72 60" fill="none" xmlns="http://www.w3.org/2000/svg">
<path d="M36 16.9998V41M36 16.9998C30.6591 16.9998 22.8731 16.6645 16 15.6868M36 16.9998C41.6 17.0834 50.0084 16.7814 57 15.6018M36 41C37.1591 41 38.9899 41.4031 40.3246 42.6763M36 41C34.8409 41 33.0101 41.403 31.6754 42.6763M30 47C30 44.9818 30.7071 43.6001 31.6754 42.6763M30 47H24M30 47C30 49.0182 30.7071 50.3999 31.6754 51.3237M36 53C34.8409 53 33.0101 52.5969 31.6754 51.3237M36 53C37.1591 53 38.9899 52.5969 40.3246 51.3237M36 53V59M42 47C42 44.9818 41.2929 43.6001 40.3246 42.6763M42 47H47M42 47C42 49.0182 41.2929 50.3999 40.3246 51.3237M40.3246 42.6763L44.0009 39M31.6754 42.6763L27.9991 39M31.6754 51.3237L27.9991 55M40.3246 51.3237L44.0009 55M16 15.6868C7.85967 14.5289 1 12.4699 1 8.99983C1 2.59983 24.3333 0.999834 36 0.999834C47.1667 0.833168 71 2.19983 71 8.99983C71 12.3897 63.95 14.4293 57 15.6018M16 15.6868V26M16 26L13 31L7 32L11 36L10 42L16 39L21 42L20 36L24 32L19 31L16 26ZM57 15.6018V25M54 24C57.3333 24.5 64 27 64 33C64 40 57.3333 42 54 43C55.3333 40.8333 58 37 58 33C58 29 55.3333 25.5 54 24Z" stroke="#394C59" stroke-width="1.5" stroke-linecap="round" stroke-linejoin="round"/>
</svg>