<svg id="Слой_1" data-name="Слой 1" xmlns="http://www.w3.org/2000/svg" viewBox="0 0 60 70"><defs><style>.cls-1,.cls-2,.cls-5{fill:#fff;}.cls-1,.cls-3,.cls-4,.cls-5{stroke:#394c59;stroke-linejoin:round;stroke-width:1.5px;}.cls-1,.cls-3,.cls-4{stroke-linecap:round;}.cls-3,.cls-4{fill:none;}.cls-4{stroke-dasharray:0.93 3.72;}</style></defs><title>Монтажная область 1</title><polygon class="cls-1" points="54 45 54 45 54 10 21 10 21 45 21 45 54 45"/><line class="cls-2" x1="57" y1="10" x2="57" y2="38"/><line class="cls-3" x1="57" y1="10" x2="57" y2="10.5"/><line class="cls-4" x1="57" y1="14.22" x2="57" y2="35.64"/><line class="cls-3" x1="57" y1="37.5" x2="57" y2="38"/><circle class="cls-3" cx="57" cy="39" r="1"/><line class="cls-1" x1="54" y1="43" x2="21" y2="43"/><path class="cls-1" d="M57.33,5H22v5H57.33c.77,0,1.4-1.12,1.4-2.5S58.1,5,57.33,5Z"/><path class="cls-3" d="M54.92,10c.77,0,1.4-1.12,1.4-2.5S55.7,5,54.92,5"/><path class="cls-3" d="M23.59,10c.77,0,1.4-1.12,1.4-2.5S24.36,5,23.59,5"/><ellipse class="cls-1" cx="21.5" cy="7.5" rx="1.5" ry="2.5"/><path class="cls-5" d="M4.09,60c0,6.6,30.24,6.6,30.24,0l1.82-37H2.27Z"/><line class="cls-1" x1="11.78" y1="38.36" x2="12.6" y2="58.03"/><line class="cls-1" x1="16.54" y1="37.58" x2="17.04" y2="58.04"/><line class="cls-1" x1="21" y1="38" x2="21" y2="58"/><line class="cls-1" x1="26.4" y1="37.84" x2="25.91" y2="58.04"/><line class="cls-1" x1="31.18" y1="37.84" x2="30.39" y2="55.67"/><path class="cls-1" d="M30.3,23H7.7L1,24.73V29H1c0,.7,1,1.54,1,1.54,1.05,1.05,8.85,2.1,17.23,2.1,8.73,0,15.81-1.2,16.71-2.1,0,0,1-.85,1-1.54h0V24.43Z"/><path class="cls-1" d="M36,21.45A8.91,8.91,0,0,0,30.53,19H7.85a8.91,8.91,0,0,0-5.5,2.45,3.1,3.1,0,0,0-1.2,2.7h0c0,.54.66,1,1,1.2C3.45,26,10.15,27,18.88,27h.61c8.73,0,15.44-1,16.73-1.64.35-.18,1-.66,1-1.2h0A3.1,3.1,0,0,0,36,21.45Z"/><path class="cls-3" d="M21,38.17a2.65,2.65,0,0,1-2.14,1,2.34,2.34,0,0,1-2.14-1"/><path class="cls-3" d="M31.18,38.17a3,3,0,0,1-2.38,1,2.67,2.67,0,0,1-2.38-1"/><path class="cls-3" d="M26.19,40.82a3.46,3.46,0,0,1-2.6,1,3,3,0,0,1-2.6-1"/><path class="cls-3" d="M16.51,40.82a2.82,2.82,0,0,1-2.24,1,2.48,2.48,0,0,1-2.24-1"/><path class="cls-3" d="M21,44.21a2.65,2.65,0,0,1-2.14,1,2.34,2.34,0,0,1-2.14-1"/><path class="cls-3" d="M30.93,44.21a2.88,2.88,0,0,1-2.26,1,2.53,2.53,0,0,1-2.26-1"/><path class="cls-3" d="M26.19,46.85a3.46,3.46,0,0,1-2.6,1,3,3,0,0,1-2.6-1"/><path class="cls-3" d="M16.76,46.85a2.82,2.82,0,0,1-2.24,1,2.48,2.48,0,0,1-2.24-1"/><path class="cls-3" d="M21,50.26a2.6,2.6,0,0,1-2.1,1,2.29,2.29,0,0,1-2.1-1"/><path class="cls-3" d="M30.62,50.24a2.85,2.85,0,0,1-2.23,1,2.5,2.5,0,0,1-2.23-1"/><path class="cls-3" d="M26,52.88a3.32,3.32,0,0,1-2.49,1,2.9,2.9,0,0,1-2.49-1"/><path class="cls-3" d="M16.76,52.94a2.66,2.66,0,0,1-2.11.94,2.34,2.34,0,0,1-2.11-.94"/><path class="cls-3" d="M21,55.8a2.49,2.49,0,0,1-2,1,2.2,2.2,0,0,1-2-1"/><path class="cls-3" d="M30.39,55.74a2.7,2.7,0,0,1-2.12.91,2.37,2.37,0,0,1-2.12-.91"/><path class="cls-3" d="M25.86,58.13a3.23,3.23,0,0,1-2.43.93A2.82,2.82,0,0,1,21,58.13"/><path class="cls-3" d="M17,58.13a2.63,2.63,0,0,1-2.09.93,2.32,2.32,0,0,1-2.09-.93"/><line class="cls-1" x1="7.01" y1="37.84" x2="7.8" y2="55.67"/><path class="cls-3" d="M7,38.17a3,3,0,0,0,2.38,1,2.67,2.67,0,0,0,2.38-1"/><path class="cls-3" d="M7.26,44.21a2.88,2.88,0,0,0,2.26,1,2.53,2.53,0,0,0,2.26-1"/><path class="cls-3" d="M7.57,50.24a2.85,2.85,0,0,0,2.23,1,2.5,2.5,0,0,0,2.23-1"/><path class="cls-3" d="M7.8,55.66a2.94,2.94,0,0,0,2.31,1,2.58,2.58,0,0,0,2.31-1"/><path class="cls-1" d="M12,15.71a1.18,1.18,0,0,0-1.33.33A2.53,2.53,0,0,0,10,17.38v4.33L12,20Z"/><path class="cls-1" d="M26,15.06a13,13,0,0,1,1.67,1.33,1.22,1.22,0,0,1,.33,1v4.33l-2-1.67Z"/><path class="cls-1" d="M27.25,17h.3a2,2,0,0,0-1.86-2H12.41a2,2,0,0,0-2,2h16.8Z"/></svg>