<svg width="40" height="58" viewBox="0 0 40 58" fill="none" xmlns="http://www.w3.org/2000/svg">
<path d="M1 53.1934H0.25V53.9434H1V53.1934ZM1 8.19336L0.707734 7.50265L0.25 7.69633V8.19336H1ZM18 1L18.2923 0.30929L18 0.185621L17.7077 0.30929L18 1ZM35 8.19336H35.75V7.69633L35.2923 7.50265L35 8.19336ZM35 53.1934V53.9434H35.75V53.1934H35ZM39.75 12.1934C39.75 11.7791 39.4142 11.4434 39 11.4434C38.5858 11.4434 38.25 11.7791 38.25 12.1934H39.75ZM39 57.1934V57.9434C39.4142 57.9434 39.75 57.6076 39.75 57.1934H39ZM5.5 56.4434C5.08579 56.4434 4.75 56.7791 4.75 57.1934C4.75 57.6076 5.08579 57.9434 5.5 57.9434V56.4434ZM1.75 53.1934V8.19336H0.25V53.1934H1.75ZM1.29227 8.88407L18.2923 1.69071L17.7077 0.30929L0.707734 7.50265L1.29227 8.88407ZM17.7077 1.69071L34.7077 8.88407L35.2923 7.50265L18.2923 0.30929L17.7077 1.69071ZM34.25 8.19336V53.1934H35.75V8.19336H34.25ZM35 52.4434H1V53.9434H35V52.4434ZM38.25 12.1934V57.1934H39.75V12.1934H38.25ZM39 56.4434H5.5V57.9434H39V56.4434ZM23.3006 17.9227L11.3006 48.9227L12.6994 49.4642L24.6994 18.4642L23.3006 17.9227ZM13.25 22.6934V28.6934H14.75V22.6934H13.25ZM7.75 28.6934V22.6934H6.25V28.6934H7.75ZM10.5 31.4434C8.98122 31.4434 7.75 30.2122 7.75 28.6934H6.25C6.25 31.0406 8.15279 32.9434 10.5 32.9434V31.4434ZM13.25 28.6934C13.25 30.2122 12.0188 31.4434 10.5 31.4434V32.9434C12.8472 32.9434 14.75 31.0406 14.75 28.6934H13.25ZM10.5 19.9434C12.0188 19.9434 13.25 21.1747 13.25 22.6934H14.75C14.75 20.3462 12.8472 18.4434 10.5 18.4434V19.9434ZM10.5 18.4434C8.15279 18.4434 6.25 20.3462 6.25 22.6934H7.75C7.75 21.1747 8.98122 19.9434 10.5 19.9434V18.4434ZM28.25 38.6934V44.6934H29.75V38.6934H28.25ZM22.75 44.6934V38.6934H21.25V44.6934H22.75ZM25.5 47.4434C23.9812 47.4434 22.75 46.2122 22.75 44.6934H21.25C21.25 47.0406 23.1528 48.9434 25.5 48.9434V47.4434ZM28.25 44.6934C28.25 46.2122 27.0188 47.4434 25.5 47.4434V48.9434C27.8472 48.9434 29.75 47.0406 29.75 44.6934H28.25ZM25.5 35.9434C27.0188 35.9434 28.25 37.1747 28.25 38.6934H29.75C29.75 36.3462 27.8472 34.4434 25.5 34.4434V35.9434ZM25.5 34.4434C23.1528 34.4434 21.25 36.3462 21.25 38.6934H22.75C22.75 37.1747 23.9812 35.9434 25.5 35.9434V34.4434ZM19.25 9.19344C19.25 9.88379 18.6904 10.4434 18 10.4434V11.9434C19.5188 11.9434 20.75 10.7122 20.75 9.19344H19.25ZM18 10.4434C17.3096 10.4434 16.75 9.88379 16.75 9.19344H15.25C15.25 10.7122 16.4812 11.9434 18 11.9434V10.4434ZM16.75 9.19344C16.75 8.50308 17.3096 7.94344 18 7.94344V6.44344C16.4812 6.44344 15.25 7.67465 15.25 9.19344H16.75ZM18 7.94344C18.6904 7.94344 19.25 8.50308 19.25 9.19344H20.75C20.75 7.67465 19.5188 6.44344 18 6.44344V7.94344Z" fill="#E21E24"/>
</svg>