<svg width="58" height="36" viewBox="0 0 58 36" fill="none" xmlns="http://www.w3.org/2000/svg">
<path d="M3 35V31M3 27H2C1.66667 27 1 26.8 1 26C1 25.2 1 22.3333 1 21C1 19.6667 1.8 17 5 17M3 27V31M3 27H55M5 17C5 15.5 5 11.4 5 7C5 2.6 9 1.16667 11 1C20.3333 1 40.4 1 46 1C51.6 1 53 5.66667 53 8V17M5 17C5.81608 17 8.38383 17 12 17M53 17C54.3333 17 57 17.8 57 21C57 24.2 57 25.6667 57 26C57 26.3333 56.8 27 56 27H55M53 17C50.934 17 48.5612 17 46 17M55 27V31M55 35V31M55 31H3M12 17V11C12 10 12.6 8 15 8C17.4 8 22 8 24 8C25 8 27 8.6 27 11C27 13.4 27 16 27 17M12 17C16.0246 17 21.3477 17 27 17M27 17C28.2683 17 29.5532 17 30.8438 17M30.8438 17V11C30.7917 10 31.3187 8 33.8438 8C36.3688 8 41 8 43 8C44 8 46 8.6 46 11C46 13.4 46 16 46 17M30.8438 17C36.0434 17 41.3343 17 46 17" stroke="#394C59" stroke-width="1.5" stroke-linecap="round" stroke-linejoin="round"/>
</svg>