<svg width="37" height="61" viewBox="0 0 37 61" fill="none" xmlns="http://www.w3.org/2000/svg">
<path d="M16 14C12 14 11 10.6667 11 9V5M16 14H20M16 14V39M20 14C21.6667 14 25 13 25 9C25 7.51087 25 6.16034 25 5M20 14C20 20.8133 20 32.3954 20 39M16 39V44C16 44.6667 16.4 46 18 46C19.5 46 20 44.5 20 44C20 43.8772 20 41.9276 20 39M16 39H9V51C9 51.6667 9.2 53.2 10 54C10.2257 54.2257 10.7751 54.669 11.5 55.2265M25 5C25 3.0435 25 1.62772 25 1H11V5M25 5H11M20 39H27C27 42.3333 27 49.4 27 51C27 52.6 26.3333 53.6667 26 54L18 60C16.325 58.8036 13.3444 56.6451 11.5 55.2265M1 60.5C2 58.7422 5.5 55.2265 11.5 55.2265M24.25 55.2265C26.8333 55.3177 33.5 56.5 35.5 60.5" stroke="#394C59" stroke-width="1.5"/>
</svg>