<svg width="52" height="45" viewBox="0 0 52 45" fill="none" xmlns="http://www.w3.org/2000/svg">
<path d="M11 44.0001H17M41 44.0001H35M17 44.0001L23 36.0001H24M17 44.0001H35M35 44.0001L29 36.0001H28M24 36.0001V32.0001H28V36.0001M24 36.0001H28M23 20.0001V32.0001H29V20.0001M21 16.0001C17 16.0001 9 14.8001 9 10.0001C9 6.578 12.9035 6.73411 17 7.87107M21 16.0001H3C2.33333 16.0001 1 16.4001 1 18.0001C1 19.6001 2.33333 20.0001 3 20.0001H49C49.6667 20.0001 51 19.6001 51 18.0001C51 16.4001 49.6667 16.0001 49 16.0001L46 16M21 16.0001C33.8 16.0001 37 12.667 37 11.0003C36.3757 11.1876 35.7047 11.3748 35 11.5424M21 16.0001L40 16M17 7.87107C20.086 8.72757 23.2814 10.1407 25 11.0001C28.2509 12.6257 31.9421 12.2696 35 11.5424M17 7.87107C20.1667 5.44226 28.2 2.77618 35 11.5424M40 16V8H46V10M40 16H46M46 16V14M46 10H47C47.6667 10 49 10.4 49 12C49 13.6 47.6667 14 47 14H46M46 10V14M43 5C42.6667 4.66667 42.2 3.8 43 3C43.8 2.2 43.3333 1.33333 43 1" stroke="#394C59" stroke-width="1.5" stroke-linecap="round" stroke-linejoin="round"/>
</svg>