<svg width="30" height="30" viewBox="0 0 30 30" fill="none" xmlns="http://www.w3.org/2000/svg">
<path d="M29.5 15C29.5 23.0239 23.0239 29.5 15 29.5C6.97614 29.5 0.5 23.0239 0.5 15C0.5 6.97614 6.97614 0.5 15 0.5C23.0239 0.5 29.5 6.97614 29.5 15Z" stroke="#989898" stroke-miterlimit="10"/>
<path d="M5.25531 15.5122C6.98465 14.5596 8.91506 13.7646 10.7187 12.9655C13.8218 11.6566 16.9372 10.3705 20.084 9.17307C20.6962 8.96905 21.7963 8.76952 21.9042 9.67685C21.8451 10.9612 21.6021 12.238 21.4355 13.5148C21.0124 16.3225 20.5235 19.1207 20.0467 21.9192C19.8825 22.8514 18.7147 23.334 17.9675 22.7374C16.1718 21.5245 14.3624 20.3234 12.5896 19.0824C12.0089 18.4923 12.5474 17.6449 13.066 17.2236C14.545 15.7661 16.1135 14.5277 17.5151 12.9949C17.8932 12.0818 16.7761 12.8513 16.4076 13.0871C14.3829 14.4824 12.4077 15.9628 10.273 17.1891C9.18264 17.7893 7.91176 17.2763 6.82186 16.9414C5.84462 16.5368 4.41261 16.1292 5.25521 15.5122L5.25531 15.5122Z" fill="#989898"/>
</svg>
