<svg  xmlns="http://www.w3.org/2000/svg" fill="#ffffff" viewBox="0 0 148 74">
<g>
	<path d="M10.2,34.9c0,0.9-0.3,1.7-0.8,2.3c-0.5,0.6-1.3,1.1-2.3,1.4v0L11,44H8.1L4.6,39H2.9V44H0.5V31h4
		c0.7,0,1.3,0,1.8,0.1c0.6,0.1,1.1,0.2,1.5,0.3c0.8,0.3,1.4,0.7,1.8,1.3C10,33.3,10.2,34,10.2,34.9L10.2,34.9z M4.1,37
		c0.5,0,1,0,1.4-0.1c0.4,0,0.7-0.1,1-0.2c0.5-0.2,0.8-0.4,1-0.7c0.2-0.3,0.3-0.7,0.3-1.1c0-0.4-0.1-0.7-0.2-0.9
		c-0.1-0.3-0.4-0.5-0.7-0.6c-0.2-0.1-0.5-0.2-0.9-0.2C5.5,33,5.1,33,4.6,33H2.9v4H4.1z M27.2,37.5c0-0.8-0.1-1.5-0.3-2.1
		c-0.2-0.6-0.5-1.1-0.8-1.5c-0.3-0.4-0.8-0.7-1.2-0.9c-0.5-0.2-1-0.3-1.6-0.3c-0.6,0-1.1,0.1-1.6,0.3c-0.5,0.2-0.9,0.5-1.2,0.9
		c-0.3,0.4-0.6,0.9-0.8,1.5c-0.2,0.6-0.3,1.3-0.3,2.1c0,0.8,0.1,1.5,0.3,2.1c0.2,0.6,0.5,1.1,0.8,1.5c0.3,0.4,0.8,0.7,1.2,0.9
		c0.5,0.2,1,0.3,1.6,0.3c0.6,0,1.1-0.1,1.6-0.3c0.5-0.2,0.9-0.5,1.2-0.9c0.3-0.4,0.6-0.9,0.8-1.5C27.1,39,27.2,38.3,27.2,37.5z
		 M29.7,37.5c0,1-0.1,1.9-0.4,2.7c-0.3,0.8-0.7,1.5-1.2,2.1c-0.5,0.6-1.2,1.1-2,1.4c-0.8,0.3-1.7,0.5-2.7,0.5c-1,0-1.9-0.2-2.7-0.5
		c-0.8-0.3-1.5-0.8-2-1.4c-0.5-0.6-1-1.3-1.2-2.1c-0.3-0.8-0.4-1.7-0.4-2.7s0.1-1.9,0.4-2.7c0.3-0.8,0.7-1.5,1.2-2.1
		c0.5-0.6,1.2-1.1,2-1.4c0.8-0.3,1.7-0.5,2.7-0.5c1,0,1.9,0.2,2.7,0.5c0.8,0.3,1.5,0.8,2,1.4c0.5,0.6,1,1.3,1.2,2.1
		C29.5,35.6,29.7,36.5,29.7,37.5z M46.2,37.5c0-0.8-0.1-1.5-0.3-2.1c-0.2-0.6-0.5-1.1-0.8-1.5c-0.3-0.4-0.8-0.7-1.2-0.9
		c-0.5-0.2-1-0.3-1.6-0.3c-0.6,0-1.1,0.1-1.6,0.3c-0.5,0.2-0.9,0.5-1.2,0.9c-0.3,0.4-0.6,0.9-0.8,1.5c-0.2,0.6-0.3,1.3-0.3,2.1
		c0,0.8,0.1,1.5,0.3,2.1c0.2,0.6,0.5,1.1,0.8,1.5c0.3,0.4,0.8,0.7,1.2,0.9c0.5,0.2,1,0.3,1.6,0.3c0.6,0,1.1-0.1,1.6-0.3
		c0.5-0.2,0.9-0.5,1.2-0.9c0.3-0.4,0.6-0.9,0.8-1.5C46.1,39,46.2,38.3,46.2,37.5z M48.7,37.5c0,1-0.1,1.9-0.4,2.7
		c-0.3,0.8-0.7,1.5-1.2,2.1c-0.5,0.6-1.2,1.1-2,1.4c-0.8,0.3-1.7,0.5-2.7,0.5c-1,0-1.9-0.2-2.7-0.5c-0.8-0.3-1.5-0.8-2-1.4
		c-0.5-0.6-1-1.3-1.2-2.1c-0.3-0.8-0.4-1.7-0.4-2.7s0.1-1.9,0.4-2.7c0.3-0.8,0.7-1.5,1.2-2.1c0.5-0.6,1.2-1.1,2-1.4
		c0.8-0.3,1.7-0.5,2.7-0.5c1,0,1.9,0.2,2.7,0.5c0.8,0.3,1.5,0.8,2,1.4c0.5,0.6,1,1.3,1.2,2.1C48.6,35.6,48.7,36.5,48.7,37.5z
		 M62.2,40.5c0.3-1,0.6-2.1,1.1-3.3l2.3-6.3h3.4V44h-2.4v-6.6c0-1,0-2.1,0.1-3.4h-0.1c-0.1,0.4-0.2,0.8-0.4,1.3
		c-0.2,0.5-0.3,0.9-0.5,1.4L63,44h-1.5l-2.7-7.4c-0.2-0.4-0.3-0.9-0.5-1.4c-0.2-0.5-0.3-0.9-0.4-1.3h-0.1c0.1,1.2,0.1,2.3,0.1,3.4
		V44h-2.4V31h3.3l2.3,6.2C61.5,38.2,61.8,39.3,62.2,40.5L62.2,40.5L62.2,40.5z M82,44h-2.4V33h-4.2v-2h10.8v2H82V44z M95,42h6.4v2
		h-8.8V31h8.5v2H95v3.4h5.2v2H95V42z M118.1,34.9c0,0.9-0.3,1.7-0.8,2.3c-0.5,0.6-1.3,1.1-2.3,1.4v0l3.9,5.4H116l-3.6-5.1h-1.6V44
		h-2.4V31h4c0.7,0,1.3,0,1.8,0.1c0.6,0.1,1.1,0.2,1.5,0.3c0.8,0.3,1.4,0.7,1.8,1.3C117.9,33.3,118.1,34,118.1,34.9L118.1,34.9z
		 M112,37c0.5,0,1,0,1.4-0.1c0.4,0,0.7-0.1,1-0.2c0.5-0.2,0.8-0.4,1-0.7c0.2-0.3,0.3-0.7,0.3-1.1c0-0.4-0.1-0.7-0.2-0.9
		c-0.1-0.3-0.4-0.5-0.7-0.6c-0.2-0.1-0.5-0.2-0.9-0.2c-0.3,0-0.8-0.1-1.3-0.1h-1.7v4H112z M125.4,44V31h2.4V44H125.4z M145,37.5
		c0-0.8-0.1-1.5-0.3-2.1c-0.2-0.6-0.5-1.1-0.8-1.5c-0.3-0.4-0.8-0.7-1.2-0.9c-0.5-0.2-1-0.3-1.6-0.3c-0.6,0-1.1,0.1-1.6,0.3
		c-0.5,0.2-0.9,0.5-1.2,0.9c-0.3,0.4-0.6,0.9-0.8,1.5c-0.2,0.6-0.3,1.3-0.3,2.1c0,0.8,0.1,1.5,0.3,2.1c0.2,0.6,0.5,1.1,0.8,1.5
		c0.3,0.4,0.8,0.7,1.2,0.9c0.5,0.2,1,0.3,1.6,0.3c0.6,0,1.1-0.1,1.6-0.3c0.5-0.2,0.9-0.5,1.2-0.9c0.3-0.4,0.6-0.9,0.8-1.5
		C144.9,39,145,38.3,145,37.5z M147.5,37.5c0,1-0.1,1.9-0.4,2.7c-0.3,0.8-0.7,1.5-1.2,2.1c-0.5,0.6-1.2,1.1-2,1.4
		c-0.8,0.3-1.7,0.5-2.7,0.5c-1,0-1.9-0.2-2.7-0.5c-0.8-0.3-1.5-0.8-2-1.4c-0.5-0.6-1-1.3-1.2-2.1c-0.3-0.8-0.4-1.7-0.4-2.7
		s0.1-1.9,0.4-2.7c0.3-0.8,0.7-1.5,1.2-2.1c0.5-0.6,1.2-1.1,2-1.4c0.8-0.3,1.7-0.5,2.7-0.5c1,0,1.9,0.2,2.7,0.5
		c0.8,0.3,1.5,0.8,2,1.4c0.5,0.6,1,1.3,1.2,2.1C147.4,35.6,147.5,36.5,147.5,37.5z"/>
	<path d="M93.4,60c-0.5,2.2-2.5,4.4-4.1,4.6C84,65.3,81,62.9,80.1,58c-0.4-2.3-0.7-4.6-1.1-6.9c-0.3-1.5-0.6-2.8-1-4
		h5.3c0.9,2.6,1.9,6.1,2.9,10.5c0.4,1.8,0.7,2.9,1,3.5c0.6,1.2,1.6,1.3,2.5,1.1c1.1-0.2,1.8-1,2.4-2.9c0,0,0-0.1,0-0.1l1.5,0.5
		C93.6,59.6,93.4,60,93.4,60L93.4,60z M61.7,58.7c0,1,0.3,1.9,0.8,2.6c0.3,0.5,0.9,0.8,1.7,1.2c0.8,0.3,1.6,0.4,2.1,0.3v0.8H51.2
		v-0.8c0.4,0,1-0.1,1.8-0.3c0.9-0.3,1.5-0.7,2-1.2c0.5-0.5,0.7-1.4,0.7-2.6V47h6L61.7,58.7z M55.7,28.1V14.2c0-1.2-0.2-2.1-0.7-2.6
		c-0.5-0.5-1.1-0.9-2-1.2c-0.9-0.3-1.4-0.3-1.8-0.3V9.3h21.7c3.9,0,7.3,1.1,10,3.3c3,2.4,4.4,5.6,4.4,9.5c0,2.2-0.6,4.2-1.8,5.9
		h-6.2c1.3-1.7,2-3.7,2-5.9c0-2.8-0.9-5.2-2.6-7.4c-1.8-2.1-3.9-3.2-6.6-3.2H61.7v16.5H55.7L55.7,28.1z"/>
</g>
</svg>
