<?xml version="1.0" encoding="UTF-8"?>
<!-- Generator: Adobe Illustrator 22.0.0, SVG Export Plug-In . SVG Version: 6.00 Build 0)  -->
<svg version="1.1" id="Слой_1" xmlns="http://www.w3.org/2000/svg" xmlns:xlink="http://www.w3.org/1999/xlink" x="0px" y="0px" viewBox="0 0 1180 1165" style="enable-background:new 0 0 1180 1165;" xml:space="preserve">
<style type="text/css">
	.st0{fill:#2B2A29;}
	.st1{fill:#727271;}
</style>
<g id="Слой_x0020_1">
	<path class="st0" d="M85.4,495.2c0,7.7-2.1,14.2-6.4,19.5c-4.3,5.3-10.8,9.3-19.7,11.9v0.3l33,45.3H68l-30-42.7H24.2v42.7H3.9   V462.1h33.5c5.6,0,10.7,0.3,15.5,1c4.8,0.6,8.8,1.6,12.2,2.8c6.5,2.4,11.5,6.1,15,11C83.7,481.7,85.4,487.8,85.4,495.2L85.4,495.2z    M34.1,512.7c4.6,0,8.5-0.2,11.7-0.6c3.2-0.4,5.9-1,8.1-1.8c4.1-1.5,6.9-3.6,8.4-6.3c1.6-2.6,2.3-5.7,2.3-9.2   c0-2.9-0.6-5.6-1.8-7.9c-1.2-2.3-3.3-4.1-6.3-5.4c-1.9-0.9-4.3-1.5-7.2-1.9c-2.9-0.4-6.5-0.6-10.8-0.6H24.2v33.7L34.1,512.7   L34.1,512.7z M221.4,517.1c0-6.7-0.8-12.6-2.5-17.6c-1.6-5-3.9-9.2-6.8-12.6c-2.9-3.3-6.3-5.8-10.3-7.5c-4-1.7-8.4-2.5-13.2-2.5   c-4.8,0-9.2,0.8-13.2,2.5c-4,1.6-7.5,4.2-10.3,7.5c-2.9,3.3-5.2,7.5-6.8,12.6c-1.7,5-2.5,10.9-2.5,17.6c0,6.7,0.8,12.6,2.5,17.6   c1.6,5,3.9,9.2,6.8,12.5c2.9,3.3,6.3,5.8,10.3,7.5c4,1.7,8.4,2.5,13.2,2.5c4.8,0,9.2-0.9,13.2-2.5c4-1.7,7.5-4.2,10.3-7.5   c2.9-3.3,5.2-7.5,6.8-12.5C220.6,529.6,221.4,523.8,221.4,517.1z M242.3,517.1c0,8.4-1.2,16.1-3.6,23.1s-5.9,13-10.5,18.1   c-4.6,5.1-10.2,9-16.9,11.8c-6.7,2.8-14.3,4.2-22.8,4.2c-8.5,0-16.1-1.4-22.8-4.2c-6.7-2.8-12.3-6.7-16.9-11.8   c-4.6-5-8.1-11.1-10.5-18.1s-3.6-14.7-3.6-23.1c0-8.4,1.2-16.1,3.6-23.1c2.4-7,5.9-13,10.5-18.1c4.6-5.1,10.2-9,16.9-11.8   c6.7-2.8,14.3-4.2,22.8-4.2s16.1,1.4,22.8,4.2c6.7,2.8,12.3,6.7,16.9,11.8c4.6,5,8.1,11.1,10.5,18.1   C241.1,501,242.3,508.7,242.3,517.1z M375.2,517.1c0-6.7-0.8-12.6-2.5-17.6c-1.6-5-3.9-9.2-6.8-12.6c-2.9-3.3-6.3-5.8-10.3-7.5   c-4-1.7-8.4-2.5-13.2-2.5c-4.8,0-9.2,0.8-13.2,2.5c-4,1.6-7.5,4.2-10.3,7.5c-2.9,3.3-5.2,7.5-6.8,12.6c-1.7,5-2.5,10.9-2.5,17.6   c0,6.7,0.8,12.6,2.5,17.6c1.6,5,3.9,9.2,6.8,12.5c2.9,3.3,6.3,5.8,10.3,7.5c4,1.7,8.4,2.5,13.2,2.5c4.8,0,9.2-0.9,13.2-2.5   c4-1.7,7.5-4.2,10.3-7.5c2.9-3.3,5.2-7.5,6.8-12.5C374.4,529.6,375.2,523.8,375.2,517.1z M396.1,517.1c0,8.4-1.2,16.1-3.6,23.1   s-5.9,13-10.5,18.1c-4.6,5.1-10.2,9-16.9,11.8c-6.7,2.8-14.3,4.2-22.8,4.2c-8.5,0-16.1-1.4-22.8-4.2c-6.7-2.8-12.3-6.7-16.9-11.8   c-4.6-5-8.1-11.1-10.5-18.1s-3.6-14.7-3.6-23.1c0-8.4,1.2-16.1,3.6-23.1c2.4-7,5.9-13,10.5-18.1c4.6-5.1,10.2-9,16.9-11.8   c6.7-2.8,14.3-4.2,22.8-4.2s16.1,1.4,22.8,4.2c6.7,2.8,12.3,6.7,16.9,11.8c4.6,5,8.1,11.1,10.5,18.1   C394.9,501,396.1,508.7,396.1,517.1z M504,542.7c2.4-8.7,5.4-18,9-27.9l19-52.7h28.3v110.2h-20.2v-55.8c0-8.2,0.3-17.7,1-28.5h-0.7   c-0.9,3.1-2,6.7-3.3,10.5c-1.3,3.9-2.6,7.8-4,11.5l-22.8,62.2h-13L474.6,510c-1.4-3.8-2.7-7.6-4-11.5c-1.3-3.9-2.4-7.4-3.3-10.5   h-0.7c0.7,10.2,1,19.6,1,28.4v55.9h-20.2V462.1h28.2l19,52.4c3.2,8.7,6.2,18.1,9,28.2H504z M661.8,572.3h-20.2V479h-35.6v-16.9   h91.3V479h-35.5L661.8,572.3L661.8,572.3z M762.9,555.4h54.2v16.9h-74.4V462.1h71.5V479h-51.2v28.5h44v16.9h-44V555.4z    M949.8,495.2c0,7.7-2.1,14.2-6.4,19.5c-4.3,5.3-10.8,9.3-19.7,11.9v0.3l33,45.3h-24.3l-30-42.7h-13.9v42.7h-20.2V462.1h33.5   c5.6,0,10.7,0.3,15.5,1c4.8,0.6,8.8,1.6,12.2,2.8c6.5,2.4,11.5,6.1,15,11C948,481.8,949.8,487.9,949.8,495.2L949.8,495.2z    M898.5,512.7c4.6,0,8.5-0.2,11.7-0.6c3.2-0.4,5.9-1,8.1-1.8c4.1-1.5,6.9-3.6,8.4-6.3c1.6-2.6,2.3-5.7,2.3-9.2   c0-2.9-0.6-5.6-1.8-7.9c-1.2-2.3-3.3-4.1-6.3-5.4c-1.9-0.9-4.3-1.5-7.2-1.9c-2.9-0.4-6.5-0.6-10.8-0.6h-14.4v33.7L898.5,512.7   L898.5,512.7z M1004.1,572.3V462.1h20.2v110.2H1004.1z M1162.2,517.1c0-6.7-0.8-12.6-2.5-17.6c-1.6-5-3.9-9.2-6.8-12.6   c-2.9-3.3-6.3-5.8-10.3-7.5c-4-1.7-8.4-2.5-13.2-2.5c-4.8,0-9.2,0.8-13.2,2.5c-4,1.6-7.5,4.2-10.3,7.5c-2.9,3.3-5.2,7.5-6.8,12.6   c-1.7,5-2.5,10.9-2.5,17.6c0,6.7,0.8,12.6,2.5,17.6c1.6,5,3.9,9.2,6.8,12.5c2.9,3.3,6.3,5.8,10.3,7.5c4,1.7,8.4,2.5,13.2,2.5   c4.8,0,9.2-0.9,13.2-2.5c4-1.7,7.5-4.2,10.3-7.5c2.9-3.3,5.2-7.5,6.8-12.5C1161.4,529.7,1162.2,523.8,1162.2,517.1z M1183.1,517.1   c0,8.4-1.2,16.1-3.6,23.1s-5.9,13-10.5,18.1c-4.6,5.1-10.2,9-16.9,11.8c-6.7,2.8-14.3,4.2-22.8,4.2c-8.5,0-16.1-1.4-22.8-4.2   c-6.7-2.8-12.3-6.7-16.9-11.8c-4.6-5-8.1-11.1-10.5-18.1s-3.6-14.7-3.6-23.1c0-8.4,1.2-16.1,3.6-23.1s5.9-13,10.5-18.1   c4.6-5.1,10.2-9,16.9-11.8c6.7-2.8,14.3-4.2,22.8-4.2c8.5,0,16.1,1.4,22.8,4.2c6.7,2.8,12.3,6.7,16.9,11.8   c4.6,5,8.1,11.1,10.5,18.1S1183.1,508.7,1183.1,517.1z"/>
	<path class="st0" d="M1005.4,928.9c-8.8,43.2-47.9,85.5-78.2,89.4c-103.1,13.3-161.3-33-178.5-128.1c-8-44.3-13.5-89.1-20.3-133.6   c-7.3-36-16.3-68.3-27-96.7h100.7c20.2,50.5,41.1,124.4,62.9,221.6c7.7,33.9,13.7,56.4,18.9,66.8c11.2,22.5,30.4,24.5,47.7,21.1   c21.2-4.2,35.3-18.9,46.2-55.6c0.1-0.4,0.4-1.9,0.7-1.8l28.9,8.9C1007.8,921.2,1005.5,928.4,1005.4,928.9L1005.4,928.9z    M394.3,659.9v243.4c0,19.4,4.8,36.3,14.5,50.8c5.8,8.7,16.7,16.2,32.7,22.5c16,6.3,29.3,8.5,39.9,6.5v14.5H191v-14.5   c6.8,1,18.4-1.2,34.9-6.5c16.5-5.3,29.3-13.1,38.5-23.2c9.2-10.2,13.8-26.9,13.8-50.3V659.9L394.3,659.9L394.3,659.9z M278.1,385.8   V103.2c0-23.5-4.6-40.2-13.8-50.3c-9.2-10.2-22-17.9-38.5-23.2s-28.1-7.5-34.9-6.5V8.6h418.3c75.5,0,139.9,21.3,193.2,64.1   c57.1,46.5,85.7,107.7,85.7,183.5c0,49-15.3,92.2-46,129.6H721.4c33.7-36.7,50.6-80,50.6-129.6c0-53.5-17-100.9-50.8-142.1   c-33.9-41.4-76-62-126.4-62H394.3v333.7L278.1,385.8L278.1,385.8z"/>
	<path class="st1" d="M75.3,1154.5c-2.4,1.3-4.9,1.8-7.7,1.8c-10,0-16-9.6-16-25.5c0-13.4,4.8-26.3,15.7-26.3c3.5,0,6.3,1.1,7.7,1.8   l2.1-8.8c-2-1.1-5.9-2.1-9.6-2.1c-17,0-26.8,15.9-26.8,35.4c0,22.5,10,34.4,24.9,34.4c4.8,0,8.8-1.1,11.3-2.5L75.3,1154.5z    M94.4,1164.7c2.7,0.3,7.7,0.7,13.9,0.7c13.1,0,29.5-3.9,29.5-19.8c0-9.3-6.5-15.3-16.3-17v-0.3c7.7-2,13.5-8,13.5-16   c0-13.6-14.1-16.9-25.3-16.9c-5.3,0-10.8,0.6-15.3,1.4L94.4,1164.7L94.4,1164.7z M105.1,1103.9c1.7-0.3,3.5-0.6,5.5-0.6   c7.6,0,14.1,2.7,14.1,10.4c0,7.3-8.2,11.5-14.8,11.5h-4.8L105.1,1103.9L105.1,1103.9z M105,1132.9h4.6c8.4,0,17.4,3.5,17.4,12.5   c0,9.3-8.3,12.2-16.6,12.2c-2.1,0-4.2-0.3-5.5-0.4L105,1132.9L105,1132.9z M196.8,1131.4c0.1-1.7,0.3-3.5,0.3-6.2   c0-15.2-5.6-29.8-19.4-29.8c-13.6,0-23,13.8-23,35.7c0,20.8,8.4,34.2,24.7,34.2c5.5,0,11.3-1.3,15.1-3.2l-1.8-7.9   c-2.7,1.4-6.5,2.5-11.3,2.5c-7.7,0-16-4.4-16-25.3H196.8L196.8,1131.4z M165.4,1123.4c0.4-9.3,3.9-19.5,11.1-19.5   c5.2,0,10.3,6,10.1,19.5H165.4z M210.1,1096.4v9h15.4v59h10.8v-59h15.4v-9H210.1L210.1,1096.4z M289,1164.4h9.8l1.3-28.7   c0.4-9.7,0.9-18.4,0.9-29.2h0.4c1.8,8.2,4.2,17.9,6.9,27.3l8.8,30.2h7.9l9.3-31.4c2.8-10,5.1-19.1,6.7-26.1h0.3   c0.3,13.1,0.6,19.7,1,28.7l1.4,29.2h10.1l-4.6-68h-12.9l-8.7,29.8c-2.2,8.2-3.5,13.1-5.8,21.8h-0.3c-2.1-8.3-3.7-13.8-6-21.8   l-9-29.8h-12.6L289,1164.4L289,1164.4z M413.7,1131.4c0.1-1.7,0.3-3.5,0.3-6.2c0-15.2-5.6-29.8-19.4-29.8c-13.6,0-23,13.8-23,35.7   c0,20.8,8.4,34.2,24.7,34.2c5.5,0,11.3-1.3,15.1-3.2l-1.8-7.9c-2.7,1.4-6.5,2.5-11.3,2.5c-7.7,0-16-4.4-16-25.3H413.7L413.7,1131.4   z M382.3,1123.4c0.4-9.3,3.9-19.5,11.1-19.5c5.2,0,10.3,6,10.1,19.5H382.3z M472.3,1066c-3.4,1.4-10.3,2.4-14.9,3.7   c-8.7,2.2-14.9,7.2-19,15.6c-4.8,9.4-6.5,22.9-6.5,38.9c0,17.6,3.9,41.5,22.6,41.5c13.5,0,22.1-11.9,22.1-35.8   c0-24-8.7-33.4-19.8-33.4c-7.2,0-13.2,5.2-15.4,11.3h-0.3c0.6-5.9,1.7-12.2,4.2-17.7c2.7-5.8,6.6-9.6,14.1-11.3   c4.6-1.3,9.6-2.1,12.4-3.2L472.3,1066L472.3,1066z M465.9,1130.7c0,9.4-1.7,26.1-11.3,26.1c-10.7,0-12.1-21.8-12.1-29.7   c0-3.9,0.4-9.7,2.2-14.5c1.6-4.2,4.6-7.6,9.6-7.6C464,1105.1,465.9,1121,465.9,1130.7z M536.3,1131.4c0.1-1.7,0.3-3.5,0.3-6.2   c0-15.2-5.6-29.8-19.4-29.8c-13.6,0-23,13.8-23,35.7c0,20.8,8.4,34.2,24.7,34.2c5.5,0,11.3-1.3,15.1-3.2l-1.8-7.9   c-2.7,1.4-6.5,2.5-11.3,2.5c-7.7,0-16-4.4-16-25.3H536.3L536.3,1131.4z M504.9,1123.4c0.4-9.3,3.9-19.5,11.1-19.5   c5.2,0,10.3,6,10.1,19.5H504.9z M559.9,1096.4v31.2c0,12.5-0.6,22.1-4.6,26.1c-1.3,1.4-2.9,2.7-5.6,3.1l1.8,8.6   c2.5,0,5.1-0.6,7.3-1.6c10-4.9,11.4-17.7,11.4-37v-21.7h14.9v59.2h10.8v-68H559.9L559.9,1096.4z M619.2,1096.4v67.6   c4.4,0.7,9.3,1.1,13.9,1.1c8.2,0,16-2,21.7-6.6c4.6-3.7,7.6-9.3,7.6-16.6c0-15.3-12.1-21.9-26-21.9c-1.8,0-3.8,0.3-6.5,0.4v-24   H619.2L619.2,1096.4z M629.9,1128.7c1.4-0.1,2.7-0.3,4.5-0.3c9,0,16.9,4.1,16.9,13.9c0,9.8-7.6,14.3-16.6,14.3   c-1.7,0-3.1-0.1-4.8-0.3V1128.7z M707,1096.4v31.2c0,12.5-0.6,22.1-4.6,26.1c-1.3,1.4-2.9,2.7-5.6,3.1l1.8,8.6   c2.5,0,5.1-0.6,7.3-1.6c10-4.9,11.4-17.7,11.4-37v-21.7h14.9v59.2H743v-68H707L707,1096.4z M805.4,1131.4c0.1-1.7,0.3-3.5,0.3-6.2   c0-15.2-5.6-29.8-19.4-29.8c-13.6,0-23,13.8-23,35.7c0,20.8,8.4,34.2,24.7,34.2c5.5,0,11.3-1.3,15.1-3.2l-1.8-7.9   c-2.7,1.4-6.5,2.5-11.3,2.5c-7.7,0-16-4.4-16-25.3H805.4L805.4,1131.4z M774,1123.4c0.4-9.3,3.9-19.5,11.1-19.5   c5.2,0,10.3,6,10.1,19.5H774z M825.6,1096.4v68h10.8v-59H856v59h10.8v-68H825.6z M890.2,1096.4v68H901v-29.9h20.1v29.9h10.8v-68   h-10.8v28.8H901v-28.8H890.2z M955.4,1096.4v68h11.1c5.1-11,11.3-26.4,13.5-32.1c2.9-7.5,5.8-15.1,8.2-23.6h0.4   c-0.7,10.5-1.1,18.6-1.1,33.3v22.3h10v-68H986l-11.4,29.4c-3.1,7.9-7,17.6-10.1,26.6h-0.3c0.9-10.7,1-20.8,1-32.6v-23.3   L955.4,1096.4L955.4,1096.4z M1020.8,1096.4v68h10.8v-29.9h20.1v29.9h10.8v-68h-10.8v28.8h-20.1v-28.8H1020.8z M1121.8,1119.4   c0-15.2-5.8-24-19.4-24c-6.7,0-12.9,2.4-15.9,4.5l2.4,7.6c3.2-2.2,7-3.5,11.3-3.5c8.4,0,10.8,6.2,10.8,15.3v2.1   c-15.3,0.1-29,7.6-29,24.7c0,11.8,7,19.4,16,19.4c5.9,0,10.7-3.1,13.6-8.3h0.4l0.7,7.2h9.7c-0.6-4.4-0.7-10.3-0.7-15.4V1119.4   L1121.8,1119.4z M1111.3,1142.9c0,1.3-0.1,2.7-0.4,3.9c-1.3,6.7-5.2,10.3-10,10.3c-3.8,0-8.3-3.1-8.3-12.1   c0-14.8,13.1-15.9,18.7-15.9V1142.9L1111.3,1142.9z"/>
</g>
</svg>